HIERARCHY
ROOT Hips
{
	OFFSET 0.00000 0.00000 0.00000
	CHANNELS 6 Xposition Yposition Zposition Zrotation Yrotation Xrotation 
	JOINT LHipJoint
	{
		OFFSET 0 0 0
		CHANNELS 3 Zrotation Yrotation Xrotation
		JOINT LeftUpLeg
		{
			OFFSET 1.38280 -1.96574 0.54427
			CHANNELS 3 Zrotation Yrotation Xrotation
			JOINT LeftLeg
			{
				OFFSET 2.72096 -7.47578 0.00000
				CHANNELS 3 Zrotation Yrotation Xrotation
				JOINT LeftFoot
				{
					OFFSET 2.73041 -7.50176 0.00000
					CHANNELS 3 Zrotation Yrotation Xrotation
					JOINT LeftToeBase
					{
						OFFSET 0.16150 -0.44371 2.18031
						CHANNELS 3 Zrotation Yrotation Xrotation
						End Site
						{
							OFFSET 0.00000 -0.00000 1.12127
						}
					}
				}
			}
		}
	}
	JOINT RHipJoint
	{
		OFFSET 0 0 0
		CHANNELS 3 Zrotation Yrotation Xrotation
		JOINT RightUpLeg
		{
			OFFSET -1.57224 -1.96575 0.54427
			CHANNELS 3 Zrotation Yrotation Xrotation
			JOINT RightLeg
			{
				OFFSET -2.95935 -8.13076 0.00000
				CHANNELS 3 Zrotation Yrotation Xrotation
				JOINT RightFoot
				{
					OFFSET -2.52345 -6.93311 0.00000
					CHANNELS 3 Zrotation Yrotation Xrotation
					JOINT RightToeBase
					{
						OFFSET -0.04475 -0.10171 1.86688
						CHANNELS 3 Zrotation Yrotation Xrotation
						End Site
						{
							OFFSET -0.00000 -0.00000 0.95157
						}
					}
				}
			}
		}
	}
	JOINT LowerBack
	{
		OFFSET 0 0 0
		CHANNELS 3 Zrotation Yrotation Xrotation
		JOINT Spine
		{
			OFFSET 0.00669 2.07367 0.09104
			CHANNELS 3 Zrotation Yrotation Xrotation
			JOINT Spine1
			{
				OFFSET -0.00664 2.06198 -0.04732
				CHANNELS 3 Zrotation Yrotation Xrotation
				JOINT Neck
				{
					OFFSET 0 0 0
					CHANNELS 3 Zrotation Yrotation Xrotation
					JOINT Neck1
					{
						OFFSET -0.00021 1.49948 0.16345
						CHANNELS 3 Zrotation Yrotation Xrotation
						JOINT Head
						{
							OFFSET 0.06080 1.50567 -0.26702
							CHANNELS 3 Zrotation Yrotation Xrotation
							End Site
							{
								OFFSET 0.01726 1.56470 -0.11854
							}
						}
					}
				}
				JOINT LeftShoulder
				{
					OFFSET 0 0 0
					CHANNELS 3 Zrotation Yrotation Xrotation
					JOINT LeftArm
					{
						OFFSET 3.14993 0.82932 -0.22488
						CHANNELS 3 Zrotation Yrotation Xrotation
						JOINT LeftForeArm
						{
							OFFSET 5.68236 -0.00000 -0.00000
							CHANNELS 3 Zrotation Yrotation Xrotation
							JOINT LeftHand
							{
								OFFSET 3.17112 -0.00000 0.00000
								CHANNELS 3 Zrotation Yrotation Xrotation
								JOINT LeftFingerBase
								{
									OFFSET 0 0 0
									CHANNELS 3 Zrotation Yrotation Xrotation
									JOINT LeftHandIndex1
									{
										OFFSET 0.63269 -0.00000 0.00000
										CHANNELS 3 Zrotation Yrotation Xrotation
										End Site
										{
											OFFSET 0.51009 -0.00000 0.00000
										}
									}
								}
								JOINT LThumb
								{
									OFFSET 0 0 0
									CHANNELS 3 Zrotation Yrotation Xrotation
									End Site
									{
										OFFSET 0.51788 -0.00000 0.51788
									}
								}
							}
						}
					}
				}
				JOINT RightShoulder
				{
					OFFSET 0 0 0
					CHANNELS 3 Zrotation Yrotation Xrotation
					JOINT RightArm
					{
						OFFSET -3.10571 0.91279 -0.33334
						CHANNELS 3 Zrotation Yrotation Xrotation
						JOINT RightForeArm
						{
							OFFSET -5.87120 -0.00000 -0.00000
							CHANNELS 3 Zrotation Yrotation Xrotation
							JOINT RightHand
							{
								OFFSET -3.37589 -0.00000 0.00000
								CHANNELS 3 Zrotation Yrotation Xrotation
								JOINT RightFingerBase
								{
									OFFSET 0 0 0
									CHANNELS 3 Zrotation Yrotation Xrotation
									JOINT RightHandIndex1
									{
										OFFSET -0.60326 -0.00000 0.00000
										CHANNELS 3 Zrotation Yrotation Xrotation
										End Site
										{
											OFFSET -0.48636 -0.00000 0.00000
										}
									}
								}
								JOINT RThumb
								{
									OFFSET 0 0 0
									CHANNELS 3 Zrotation Yrotation Xrotation
									End Site
									{
										OFFSET -0.49379 -0.00000 0.49379
									}
								}
							}
						}
					}
				}
			}
		}
	}
}
MOTION
Frames: 10
Frame Time: 0.00930233
0.00 0.00 0.00 0 0 0 0 0 0 -21 0 0 0 0 0 0 0 0 0 0 0 0 0 0 21 0 0 0 0 0 0 0 0 0 0 0 0 0 0 0 0 0 0 0 0 0 0 -16 0 0 21 0 0 11 0 0 0 -8 0 0 0 0 0 0 0 0 0 0 0 0 0 0 0 0 0 0 0 0 8 0 0 0 0 0 0 0 0 0 0 0 0 0 0 0 0 0
0.00 0.00 0.00 188.4140 -81.6685 -180.2020 0.0000 0.0000 0.0000 -20.4332 -9.0473 -23.9260 5.8063 14.2380 44.1994 2.7000 -5.4483 -29.9305 0.4877 -4.4779 -12.4253 0.0000 0.0000 0.0000 20.7137 10.2089 -22.5905 -7.9117 -16.0539 52.2439 0.3537 12.6607 12.2563 -4.5730 -12.8862 38.9438 -2.4803 0.6386 -7.6759 -0.1764 1.0947 1.0389 1.3434 0.4670 5.3488 -5.0794 -1.3917 -18.1204 4.4424 -1.6806 20.4951 2.1548 -0.7278 9.5506 0.0000 -0.0000 0.0000 -89.0804 0.4536 20.8844 17.1444 -27.0477 -4.1528 -0.0000 0.0000 -13.9066 18.3799 30.4605 9.5612 -7.1250 0.0000 -0.0000 -15.3528 61.1139 -6.1080 0.0000 -0.0000 0.0000 86.1874 -4.2111 8.5584 -17.3745 27.3488 -4.2580 0.0000 0.0000 15.5247 -22.0040 26.7523 -10.3095 7.1250 -0.0000 -0.0000 4.7888 -1.5344 4.6754
0.00 0.00 0.00 208.2450 -88.2004 -196.9650 0.0000 0.0000 0.0000 -16.7649 0.4447 -12.8630 7.9293 16.0670 52.3076 0.1995 -0.4367 -8.2924 0.8525 -5.8884 -16.4611 0.0000 0.0000 0.0000 16.1312 20.0349 -33.6032 -4.9373 -13.3129 40.5513 -0.0211 4.5816 7.2545 -6.4193 -14.8227 46.6421 1.6624 -0.9075 -6.6800 3.1297 -1.5693 1.7068 2.1452 -0.7945 5.5749 -4.1992 -0.8316 -17.5079 1.7279 -0.4817 18.6587 1.2137 -0.3783 8.7366 0.0000 -0.0000 0.0000 -86.9452 6.3076 31.4335 14.2817 -23.1360 -2.9379 -0.0000 0.0000 -12.3889 13.9550 34.7729 8.0664 -7.1250 0.0000 -0.0000 -24.0115 64.0024 -11.3769 0.0000 -0.0000 0.0000 83.1491 -5.2565 -5.5419 -14.4944 23.4371 -3.0220 0.0000 0.0000 20.1031 -21.4975 25.9033 -9.7627 7.1250 -0.0000 -0.0000 4.9953 -2.5084 4.7904
0.00 0.00 0.00 346.9090 -86.5247 -336.1770 0.0000 0.0000 0.0000 -14.5820 -6.0020 -29.9695 12.0030 18.3919 65.9982 1.1598 2.0775 -21.1910 1.2309 -7.0360 -19.8222 0.0000 0.0000 0.0000 19.9117 16.1141 -27.6870 -5.3237 -13.7393 42.2032 0.4475 12.2636 8.2673 -6.3303 -14.7410 46.2935 2.0547 0.4313 -6.5776 2.6673 0.2156 1.9020 1.6469 0.1134 5.6742 -5.2528 -3.0053 -17.0961 2.8513 -3.4723 18.7885 1.3931 -1.7377 8.8454 0.0000 -0.0000 0.0000 -88.5100 3.9716 31.5569 19.8544 -30.4666 -5.4573 -0.0000 0.0000 -16.6893 18.2720 33.0462 10.2068 -7.1250 0.0000 -0.0000 -17.5375 63.5639 -8.0197 0.0000 -0.0000 0.0000 79.1090 0.9467 1.1487 -14.0219 22.7660 -2.8366 0.0000 0.0000 21.5271 -23.4104 26.2492 -10.8401 7.1250 -0.0000 -0.0000 3.8839 -1.7847 3.7698
0.00 0.00 0.00 209.5040 -87.6623 -201.9460 0.0000 0.0000 0.0000 -26.4634 -2.2018 -32.0574 5.0432 13.4322 41.0088 3.0032 1.1307 -33.2432 0.1137 2.1741 5.9872 0.0000 0.0000 0.0000 12.0720 8.6912 -18.9784 -11.1035 -17.9854 63.1172 0.0086 4.4751 -2.8013 -3.3405 -11.2269 33.0489 -1.4148 -0.1322 -8.2582 1.4122 -0.1193 1.7648 2.2597 -0.1447 6.4952 -1.2824 3.6352 -14.9553 -4.2718 5.9832 16.4366 -0.5470 2.3078 7.6349 0.0000 -0.0000 0.0000 -84.7640 -0.5254 31.4099 22.4983 -33.5356 -6.8591 -0.0000 0.0000 -18.5961 18.8419 32.0397 10.2612 -7.1250 0.0000 -0.0000 -16.0434 62.7532 -7.0128 0.0000 -0.0000 0.0000 83.1334 -4.9728 3.1973 -11.8684 19.6070 -2.0579 0.0000 0.0000 29.2798 -15.3643 24.1391 -6.4115 7.1250 -0.0000 -0.0000 8.5866 -5.2892 7.8491
0.00 0.00 0.00 356.2080 71.2077 -352.7590 0.0000 0.0000 0.0000 -26.1966 -7.1084 -10.1623 3.4978 11.4604 33.8488 1.1821 -17.8016 -21.5973 0.0865 -1.8968 -5.2206 0.0000 0.0000 0.0000 9.6032 27.9361 -41.9839 -3.0904 -10.8400 31.7423 0.0933 -5.6580 -3.8345 -12.0317 18.4040 -66.0892 -2.7079 -1.1605 -7.7597 1.9478 -1.3916 2.4675 3.3828 -0.8478 7.0716 -0.8042 3.5719 -19.3216 -0.4231 5.4598 21.7631 0.7668 2.4355 10.1236 0.0000 -0.0000 0.0000 -88.4680 -10.4436 45.3220 20.1288 -30.7972 -5.5972 -0.0000 0.0000 -15.3205 18.7799 31.4961 10.0734 -7.1250 0.0000 -0.0000 -15.6830 62.2144 -6.6520 0.0000 -0.0000 0.0000 81.6892 -5.8154 10.5333 -20.2421 30.9330 -5.6553 0.0000 0.0000 15.3725 -19.4827 26.0519 -8.8317 7.1250 -0.0000 -0.0000 6.2277 -2.7114 5.9620
0.00 0.00 0.00 352.0120 78.2779 -357.2880 0.0000 0.0000 0.0000 -23.0514 -5.5273 -4.3345 4.1818 12.3985 37.1565 -0.2524 -15.7847 -8.1900 0.0353 -1.2122 -3.3328 0.0000 0.0000 0.0000 13.6815 24.1639 -36.6861 -4.5044 -12.8029 38.6352 -0.0467 -2.1820 -5.4855 -13.1737 18.8440 -69.6641 0.8401 -0.4852 -8.2626 2.6828 -0.8862 1.8636 2.2191 -0.4498 6.6285 -1.0691 2.5480 -19.6129 -0.2433 4.0476 21.1486 0.6706 1.7914 9.9521 0.0000 -0.0000 0.0000 -87.6500 -1.0718 31.8060 11.3626 -18.8419 -1.8914 -0.0000 0.0000 -9.7902 17.0520 34.7460 9.9159 -7.1250 0.0000 -0.0000 -20.5356 64.8215 -10.0459 0.0000 -0.0000 0.0000 78.9191 -3.6862 10.0429 -19.4990 30.0341 -5.2783 0.0000 0.0000 14.1120 -20.9434 24.8984 -9.1536 7.1250 -0.0000 -0.0000 5.2245 -3.6478 4.9023
0.00 0.00 0.00 245.4200 86.4064 -464.7790 0.0000 0.0000 0.0000 -7.9072 -19.5668 -42.5885 2.5065 9.8497 28.4913 1.4406 3.5563 -24.1957 1.2933 -7.2054 -20.3253 0.0000 0.0000 0.0000 26.3833 4.6610 -9.9564 -3.4476 -11.3866 33.5951 1.5566 -22.3222 -1.7227 -13.3307 18.8983 -70.1494 1.4169 1.7373 -8.5899 1.8448 2.0793 1.1164 1.4146 1.0474 5.9715 -3.5899 -1.6047 -18.2806 2.5036 -1.5370 25.2389 1.3185 -0.5977 11.2751 0.0000 0.0000 0.0000 -89.1009 0.8316 25.6182 16.8240 -26.6252 -4.0082 -0.0000 0.0000 -14.2803 16.1669 32.6221 8.8825 -7.1250 0.0000 -0.0000 -19.5156 62.6156 -8.5233 0.0000 0.0000 0.0000 80.3754 10.6193 25.3804 -24.3684 35.5514 -7.9197 0.0000 0.0000 11.2111 -23.0532 27.9465 -11.2792 7.1250 -0.0000 -0.0000 4.3164 -0.0891 4.3219
0.00 0.00 0.00 357.2530 80.4858 -352.1200 0.0000 0.0000 0.0000 -16.0173 -13.3104 -36.6926 4.5123 12.8126 38.6708 0.7747 4.5100 -18.8621 0.2606 -3.2844 -9.0715 0.0000 0.0000 0.0000 16.9177 6.5749 -8.2103 -7.5669 -15.7913 50.9874 -0.3319 2.5301 -10.3014 -13.2774 18.8800 -69.9849 -2.8235 1.7104 -8.9818 -0.1248 2.6055 1.1013 1.8212 1.1890 6.0761 -2.6956 1.3959 -20.0205 -0.6482 3.2324 23.5309 0.7172 1.2194 10.8866 0.0000 -0.0000 0.0000 -87.3163 1.1134 27.5487 14.9307 -24.0495 -3.1976 -0.0000 0.0000 -12.6802 17.2468 33.4468 9.7097 -7.1250 0.0000 -0.0000 -19.0549 63.6685 -8.7848 0.0000 -0.0000 0.0000 88.1499 2.0068 2.0063 -10.2921 17.1952 -1.5602 0.0000 0.0000 34.6698 -17.4675 29.0887 -8.6979 7.1250 -0.0000 -0.0000 7.7298 0.0303 7.8052
0.00 0.00 0.00 430.5060 93.3993 -278.0990 0.0000 0.0000 0.0000 -19.3919 -6.2318 -41.3944 4.3584 12.6227 37.9719 1.6743 6.1908 -27.3399 0.0641 1.6332 4.4929 0.0000 0.0000 0.0000 22.8792 2.9040 -5.9310 -4.5277 -12.8314 38.7404 -0.3064 -4.2665 -12.9113 -13.3128 18.8922 -70.0944 -0.1199 1.5194 -10.7767 1.2052 1.9728 0.8293 1.6629 0.9433 6.8807 0.7047 4.7866 -18.1883 -3.8720 7.3574 18.0775 -0.4735 3.1279 8.8341 -0.0000 -0.0000 0.0000 -86.2192 -0.1090 31.9587 15.9255 -25.4195 -3.6139 -0.0000 0.0000 -13.2443 14.1087 33.5338 7.9050 -7.1250 0.0000 -0.0000 -22.6030 62.9253 -10.1053 -0.0000 -0.0000 0.0000 88.4465 -2.3429 18.1645 -18.6647 29.0000 -4.8672 0.0000 0.0000 17.8428 -25.5550 30.9643 -13.8210 7.1250 -0.0000 -0.0000 3.3205 3.5967 3.5281
